<mxfile host="app.diagrams.net" agent="Mozilla/5.0 (Windows NT 10.0; Win64; x64) AppleWebKit/537.36 (KHTML, like Gecko) Chrome/135.0.0.0 Safari/537.36" version="26.2.14">
  <diagram name="1 oldal" id="KzL_mlyw6HM5IqUm_3Ji">
    <mxGraphModel dx="2253" dy="1912" grid="1" gridSize="10" guides="1" tooltips="1" connect="1" arrows="1" fold="1" page="1" pageScale="1" pageWidth="827" pageHeight="1169" math="0" shadow="0">
      <root>
        <mxCell id="0" />
        <mxCell id="1" parent="0" />
        <mxCell id="QnFTYgcfVURdufgYZe0T-29" value="&lt;span style=&quot;font-size:12.0pt;line-height:107%;&lt;br/&gt;font-family:&amp;quot;Times New Roman&amp;quot;,serif;mso-fareast-font-family:Calibri;mso-fareast-theme-font:&lt;br/&gt;minor-latin;mso-ansi-language:HU;mso-fareast-language:EN-US;mso-bidi-language:&lt;br/&gt;AR-SA&quot;&gt;Price&lt;/span&gt;" style="ellipse;whiteSpace=wrap;html=1;align=center;" parent="1" vertex="1">
          <mxGeometry x="50" y="60" width="100" height="40" as="geometry" />
        </mxCell>
        <mxCell id="6xBrh_6f9ubQhlfFWh0M-3" value="&lt;span style=&quot;font-size:12.0pt;line-height:107%;&lt;br/&gt;font-family:&amp;quot;Times New Roman&amp;quot;,serif;mso-fareast-font-family:Calibri;mso-fareast-theme-font:&lt;br/&gt;minor-latin;mso-ansi-language:HU;mso-fareast-language:EN-US;mso-bidi-language:&lt;br/&gt;AR-SA&quot;&gt;Description&lt;/span&gt;" style="ellipse;whiteSpace=wrap;html=1;align=center;" parent="1" vertex="1">
          <mxGeometry x="200" y="10" width="100" height="40" as="geometry" />
        </mxCell>
        <mxCell id="6xBrh_6f9ubQhlfFWh0M-4" value="&lt;span style=&quot;font-size:12.0pt;line-height:107%;&lt;br/&gt;font-family:&amp;quot;Times New Roman&amp;quot;,serif;mso-fareast-font-family:Calibri;mso-fareast-theme-font:&lt;br/&gt;minor-latin;mso-ansi-language:HU;mso-fareast-language:EN-US;mso-bidi-language:&lt;br/&gt;AR-SA&quot;&gt;Material&lt;/span&gt;" style="ellipse;whiteSpace=wrap;html=1;align=center;" parent="1" vertex="1">
          <mxGeometry x="130" y="120" width="100" height="40" as="geometry" />
        </mxCell>
        <mxCell id="6xBrh_6f9ubQhlfFWh0M-5" value="&lt;span style=&quot;font-size:12.0pt;line-height:107%;&lt;br/&gt;font-family:&amp;quot;Times New Roman&amp;quot;,serif;mso-fareast-font-family:Calibri;mso-fareast-theme-font:&lt;br/&gt;minor-latin;mso-ansi-language:HU;mso-fareast-language:EN-US;mso-bidi-language:&lt;br/&gt;AR-SA&quot;&gt;Name&lt;/span&gt;" style="ellipse;whiteSpace=wrap;html=1;align=center;" parent="1" vertex="1">
          <mxGeometry x="410" y="150" width="100" height="40" as="geometry" />
        </mxCell>
        <mxCell id="6xBrh_6f9ubQhlfFWh0M-7" value="&lt;span style=&quot;font-size:12.0pt;line-height:107%;&lt;br/&gt;font-family:&amp;quot;Times New Roman&amp;quot;,serif;mso-fareast-font-family:Calibri;mso-fareast-theme-font:&lt;br/&gt;minor-latin;mso-ansi-language:HU;mso-fareast-language:EN-US;mso-bidi-language:&lt;br/&gt;AR-SA&quot;&gt;Category&lt;/span&gt;" style="ellipse;whiteSpace=wrap;html=1;align=center;" parent="1" vertex="1">
          <mxGeometry x="-30" y="230" width="100" height="40" as="geometry" />
        </mxCell>
        <mxCell id="6xBrh_6f9ubQhlfFWh0M-8" value="&lt;span style=&quot;font-size:12.0pt;line-height:107%;&lt;br/&gt;font-family:&amp;quot;Times New Roman&amp;quot;,serif;mso-fareast-font-family:Calibri;mso-fareast-theme-font:&lt;br/&gt;minor-latin;mso-ansi-language:HU;mso-fareast-language:EN-US;mso-bidi-language:&lt;br/&gt;AR-SA&quot;&gt;Stock&lt;/span&gt;" style="ellipse;whiteSpace=wrap;html=1;align=center;" parent="1" vertex="1">
          <mxGeometry x="260" y="120" width="100" height="40" as="geometry" />
        </mxCell>
        <mxCell id="6xBrh_6f9ubQhlfFWh0M-9" value="&lt;span style=&quot;font-size: 16px;&quot;&gt;Image&lt;/span&gt;" style="ellipse;whiteSpace=wrap;html=1;align=center;" parent="1" vertex="1">
          <mxGeometry x="200" y="360" width="100" height="40" as="geometry" />
        </mxCell>
        <mxCell id="6xBrh_6f9ubQhlfFWh0M-40" style="edgeStyle=orthogonalEdgeStyle;rounded=0;orthogonalLoop=1;jettySize=auto;html=1;entryX=0.5;entryY=1;entryDx=0;entryDy=0;endArrow=none;endFill=0;" parent="1" source="6xBrh_6f9ubQhlfFWh0M-11" target="6xBrh_6f9ubQhlfFWh0M-3" edge="1">
          <mxGeometry relative="1" as="geometry" />
        </mxCell>
        <mxCell id="6xBrh_6f9ubQhlfFWh0M-41" style="edgeStyle=orthogonalEdgeStyle;rounded=0;orthogonalLoop=1;jettySize=auto;html=1;entryX=0.5;entryY=1;entryDx=0;entryDy=0;endArrow=none;endFill=0;" parent="1" source="6xBrh_6f9ubQhlfFWh0M-11" target="6xBrh_6f9ubQhlfFWh0M-5" edge="1">
          <mxGeometry relative="1" as="geometry" />
        </mxCell>
        <mxCell id="6xBrh_6f9ubQhlfFWh0M-43" style="edgeStyle=orthogonalEdgeStyle;rounded=0;orthogonalLoop=1;jettySize=auto;html=1;entryX=0.5;entryY=1;entryDx=0;entryDy=0;endArrow=none;endFill=0;" parent="1" source="6xBrh_6f9ubQhlfFWh0M-11" target="6xBrh_6f9ubQhlfFWh0M-8" edge="1">
          <mxGeometry relative="1" as="geometry" />
        </mxCell>
        <mxCell id="6xBrh_6f9ubQhlfFWh0M-44" style="edgeStyle=orthogonalEdgeStyle;rounded=0;orthogonalLoop=1;jettySize=auto;html=1;entryX=0.5;entryY=1;entryDx=0;entryDy=0;endArrow=none;endFill=0;" parent="1" source="6xBrh_6f9ubQhlfFWh0M-11" target="6xBrh_6f9ubQhlfFWh0M-4" edge="1">
          <mxGeometry relative="1" as="geometry" />
        </mxCell>
        <mxCell id="6xBrh_6f9ubQhlfFWh0M-45" style="edgeStyle=orthogonalEdgeStyle;rounded=0;orthogonalLoop=1;jettySize=auto;html=1;endArrow=none;endFill=0;" parent="1" source="6xBrh_6f9ubQhlfFWh0M-11" target="6xBrh_6f9ubQhlfFWh0M-7" edge="1">
          <mxGeometry relative="1" as="geometry" />
        </mxCell>
        <mxCell id="6xBrh_6f9ubQhlfFWh0M-48" style="edgeStyle=orthogonalEdgeStyle;rounded=0;orthogonalLoop=1;jettySize=auto;html=1;endArrow=none;endFill=0;" parent="1" source="6xBrh_6f9ubQhlfFWh0M-11" target="QnFTYgcfVURdufgYZe0T-29" edge="1">
          <mxGeometry relative="1" as="geometry" />
        </mxCell>
        <mxCell id="6xBrh_6f9ubQhlfFWh0M-51" style="edgeStyle=orthogonalEdgeStyle;rounded=0;orthogonalLoop=1;jettySize=auto;html=1;entryX=0.5;entryY=0;entryDx=0;entryDy=0;endArrow=none;endFill=0;" parent="1" source="6xBrh_6f9ubQhlfFWh0M-11" target="6xBrh_6f9ubQhlfFWh0M-9" edge="1">
          <mxGeometry relative="1" as="geometry" />
        </mxCell>
        <mxCell id="Rk4fHZE66jtxpxEKPoya-15" style="edgeStyle=orthogonalEdgeStyle;rounded=0;orthogonalLoop=1;jettySize=auto;html=1;entryX=0.5;entryY=1;entryDx=0;entryDy=0;endArrow=none;endFill=0;" parent="1" source="6xBrh_6f9ubQhlfFWh0M-11" target="Rk4fHZE66jtxpxEKPoya-11" edge="1">
          <mxGeometry relative="1" as="geometry" />
        </mxCell>
        <mxCell id="6xBrh_6f9ubQhlfFWh0M-11" value="&lt;font style=&quot;font-size: 14px;&quot;&gt;Product&lt;/font&gt;" style="whiteSpace=wrap;html=1;align=center;" parent="1" vertex="1">
          <mxGeometry x="200" y="230" width="100" height="40" as="geometry" />
        </mxCell>
        <mxCell id="6xBrh_6f9ubQhlfFWh0M-111" style="edgeStyle=orthogonalEdgeStyle;rounded=0;orthogonalLoop=1;jettySize=auto;html=1;entryX=0;entryY=0.5;entryDx=0;entryDy=0;endArrow=none;endFill=0;" parent="1" source="6xBrh_6f9ubQhlfFWh0M-12" target="6xBrh_6f9ubQhlfFWh0M-20" edge="1">
          <mxGeometry relative="1" as="geometry" />
        </mxCell>
        <mxCell id="Rk4fHZE66jtxpxEKPoya-14" value="" style="edgeStyle=orthogonalEdgeStyle;rounded=0;orthogonalLoop=1;jettySize=auto;html=1;endArrow=none;endFill=0;" parent="1" source="6xBrh_6f9ubQhlfFWh0M-12" target="Rk4fHZE66jtxpxEKPoya-9" edge="1">
          <mxGeometry relative="1" as="geometry" />
        </mxCell>
        <mxCell id="Rk4fHZE66jtxpxEKPoya-81" style="edgeStyle=orthogonalEdgeStyle;rounded=0;orthogonalLoop=1;jettySize=auto;html=1;entryX=0;entryY=0.5;entryDx=0;entryDy=0;endArrow=none;endFill=0;" parent="1" source="6xBrh_6f9ubQhlfFWh0M-12" target="Rk4fHZE66jtxpxEKPoya-78" edge="1">
          <mxGeometry relative="1" as="geometry" />
        </mxCell>
        <mxCell id="Rk4fHZE66jtxpxEKPoya-100" style="edgeStyle=orthogonalEdgeStyle;rounded=0;orthogonalLoop=1;jettySize=auto;html=1;entryX=1;entryY=0.5;entryDx=0;entryDy=0;" parent="1" source="6xBrh_6f9ubQhlfFWh0M-12" target="6xBrh_6f9ubQhlfFWh0M-21" edge="1">
          <mxGeometry relative="1" as="geometry" />
        </mxCell>
        <mxCell id="Rk4fHZE66jtxpxEKPoya-101" style="edgeStyle=orthogonalEdgeStyle;rounded=0;orthogonalLoop=1;jettySize=auto;html=1;entryX=0;entryY=0.5;entryDx=0;entryDy=0;" parent="1" source="6xBrh_6f9ubQhlfFWh0M-12" target="6xBrh_6f9ubQhlfFWh0M-22" edge="1">
          <mxGeometry relative="1" as="geometry" />
        </mxCell>
        <mxCell id="6xBrh_6f9ubQhlfFWh0M-12" value="&lt;font style=&quot;font-size: 14px;&quot;&gt;Users&lt;/font&gt;" style="whiteSpace=wrap;html=1;align=center;" parent="1" vertex="1">
          <mxGeometry x="560" y="230" width="100" height="40" as="geometry" />
        </mxCell>
        <mxCell id="6xBrh_6f9ubQhlfFWh0M-114" style="edgeStyle=orthogonalEdgeStyle;rounded=0;orthogonalLoop=1;jettySize=auto;html=1;entryX=0.5;entryY=0;entryDx=0;entryDy=0;endArrow=none;endFill=0;" parent="1" source="6xBrh_6f9ubQhlfFWh0M-13" target="6xBrh_6f9ubQhlfFWh0M-19" edge="1">
          <mxGeometry relative="1" as="geometry" />
        </mxCell>
        <mxCell id="6xBrh_6f9ubQhlfFWh0M-117" style="edgeStyle=orthogonalEdgeStyle;rounded=0;orthogonalLoop=1;jettySize=auto;html=1;entryX=0.5;entryY=0;entryDx=0;entryDy=0;endArrow=none;endFill=0;" parent="1" source="6xBrh_6f9ubQhlfFWh0M-13" target="6xBrh_6f9ubQhlfFWh0M-17" edge="1">
          <mxGeometry relative="1" as="geometry" />
        </mxCell>
        <mxCell id="6xBrh_6f9ubQhlfFWh0M-118" style="edgeStyle=orthogonalEdgeStyle;rounded=0;orthogonalLoop=1;jettySize=auto;html=1;endArrow=none;endFill=0;" parent="1" source="6xBrh_6f9ubQhlfFWh0M-13" target="6xBrh_6f9ubQhlfFWh0M-16" edge="1">
          <mxGeometry relative="1" as="geometry" />
        </mxCell>
        <mxCell id="Rk4fHZE66jtxpxEKPoya-13" style="edgeStyle=orthogonalEdgeStyle;rounded=0;orthogonalLoop=1;jettySize=auto;html=1;entryX=0;entryY=0.5;entryDx=0;entryDy=0;endArrow=none;endFill=0;" parent="1" source="6xBrh_6f9ubQhlfFWh0M-13" target="Rk4fHZE66jtxpxEKPoya-8" edge="1">
          <mxGeometry relative="1" as="geometry" />
        </mxCell>
        <mxCell id="pAfpiLtt0J3ozyGTxGGi-9" style="edgeStyle=orthogonalEdgeStyle;rounded=0;orthogonalLoop=1;jettySize=auto;html=1;" edge="1" parent="1" source="6xBrh_6f9ubQhlfFWh0M-13" target="pAfpiLtt0J3ozyGTxGGi-8">
          <mxGeometry relative="1" as="geometry" />
        </mxCell>
        <mxCell id="pAfpiLtt0J3ozyGTxGGi-10" style="edgeStyle=orthogonalEdgeStyle;rounded=0;orthogonalLoop=1;jettySize=auto;html=1;entryX=0.5;entryY=0;entryDx=0;entryDy=0;" edge="1" parent="1" source="6xBrh_6f9ubQhlfFWh0M-13" target="pAfpiLtt0J3ozyGTxGGi-7">
          <mxGeometry relative="1" as="geometry" />
        </mxCell>
        <mxCell id="pAfpiLtt0J3ozyGTxGGi-11" style="edgeStyle=orthogonalEdgeStyle;rounded=0;orthogonalLoop=1;jettySize=auto;html=1;entryX=0.5;entryY=1;entryDx=0;entryDy=0;" edge="1" parent="1" source="6xBrh_6f9ubQhlfFWh0M-13" target="pAfpiLtt0J3ozyGTxGGi-4">
          <mxGeometry relative="1" as="geometry" />
        </mxCell>
        <mxCell id="pAfpiLtt0J3ozyGTxGGi-12" style="edgeStyle=orthogonalEdgeStyle;rounded=0;orthogonalLoop=1;jettySize=auto;html=1;entryX=0.5;entryY=0;entryDx=0;entryDy=0;" edge="1" parent="1" source="6xBrh_6f9ubQhlfFWh0M-13" target="pAfpiLtt0J3ozyGTxGGi-3">
          <mxGeometry relative="1" as="geometry" />
        </mxCell>
        <mxCell id="pAfpiLtt0J3ozyGTxGGi-14" style="edgeStyle=orthogonalEdgeStyle;rounded=0;orthogonalLoop=1;jettySize=auto;html=1;" edge="1" parent="1" source="6xBrh_6f9ubQhlfFWh0M-13" target="pAfpiLtt0J3ozyGTxGGi-6">
          <mxGeometry relative="1" as="geometry" />
        </mxCell>
        <mxCell id="pAfpiLtt0J3ozyGTxGGi-15" style="edgeStyle=orthogonalEdgeStyle;rounded=0;orthogonalLoop=1;jettySize=auto;html=1;" edge="1" parent="1" source="6xBrh_6f9ubQhlfFWh0M-13" target="pAfpiLtt0J3ozyGTxGGi-5">
          <mxGeometry relative="1" as="geometry" />
        </mxCell>
        <mxCell id="6xBrh_6f9ubQhlfFWh0M-13" value="&lt;font style=&quot;font-size: 14px;&quot;&gt;Orders&lt;/font&gt;" style="whiteSpace=wrap;html=1;align=center;" parent="1" vertex="1">
          <mxGeometry x="560" y="565" width="100" height="40" as="geometry" />
        </mxCell>
        <mxCell id="6xBrh_6f9ubQhlfFWh0M-54" style="edgeStyle=orthogonalEdgeStyle;rounded=0;orthogonalLoop=1;jettySize=auto;html=1;entryX=0.5;entryY=0;entryDx=0;entryDy=0;endArrow=none;endFill=0;" parent="1" source="6xBrh_6f9ubQhlfFWh0M-14" target="6xBrh_6f9ubQhlfFWh0M-27" edge="1">
          <mxGeometry relative="1" as="geometry" />
        </mxCell>
        <mxCell id="Rk4fHZE66jtxpxEKPoya-12" style="edgeStyle=orthogonalEdgeStyle;rounded=0;orthogonalLoop=1;jettySize=auto;html=1;endArrow=none;endFill=0;" parent="1" source="6xBrh_6f9ubQhlfFWh0M-14" target="Rk4fHZE66jtxpxEKPoya-10" edge="1">
          <mxGeometry relative="1" as="geometry" />
        </mxCell>
        <mxCell id="pAfpiLtt0J3ozyGTxGGi-16" style="edgeStyle=orthogonalEdgeStyle;rounded=0;orthogonalLoop=1;jettySize=auto;html=1;entryX=0.5;entryY=1;entryDx=0;entryDy=0;" edge="1" parent="1" source="6xBrh_6f9ubQhlfFWh0M-14" target="6xBrh_6f9ubQhlfFWh0M-26">
          <mxGeometry relative="1" as="geometry" />
        </mxCell>
        <mxCell id="pAfpiLtt0J3ozyGTxGGi-17" style="edgeStyle=orthogonalEdgeStyle;rounded=0;orthogonalLoop=1;jettySize=auto;html=1;entryX=0.5;entryY=1;entryDx=0;entryDy=0;" edge="1" parent="1" source="6xBrh_6f9ubQhlfFWh0M-14" target="6xBrh_6f9ubQhlfFWh0M-25">
          <mxGeometry relative="1" as="geometry" />
        </mxCell>
        <mxCell id="pAfpiLtt0J3ozyGTxGGi-18" style="edgeStyle=orthogonalEdgeStyle;rounded=0;orthogonalLoop=1;jettySize=auto;html=1;" edge="1" parent="1" source="6xBrh_6f9ubQhlfFWh0M-14" target="6xBrh_6f9ubQhlfFWh0M-24">
          <mxGeometry relative="1" as="geometry" />
        </mxCell>
        <mxCell id="6xBrh_6f9ubQhlfFWh0M-14" value="&lt;font style=&quot;font-size: 14px;&quot;&gt;OrderItems&lt;/font&gt;" style="whiteSpace=wrap;html=1;align=center;" parent="1" vertex="1">
          <mxGeometry x="70" y="565" width="100" height="40" as="geometry" />
        </mxCell>
        <mxCell id="6xBrh_6f9ubQhlfFWh0M-16" value="&lt;span style=&quot;font-size:12.0pt;line-height:107%;&lt;br/&gt;font-family:&amp;quot;Times New Roman&amp;quot;,serif;mso-fareast-font-family:Calibri;mso-fareast-theme-font:&lt;br/&gt;minor-latin;mso-ansi-language:HU;mso-fareast-language:EN-US;mso-bidi-language:&lt;br/&gt;AR-SA&quot;&gt;UserId&lt;/span&gt;" style="ellipse;whiteSpace=wrap;html=1;align=center;" parent="1" vertex="1">
          <mxGeometry x="710" y="450" width="100" height="40" as="geometry" />
        </mxCell>
        <mxCell id="6xBrh_6f9ubQhlfFWh0M-17" value="&lt;span style=&quot;font-size:12.0pt;line-height:107%;&lt;br/&gt;font-family:&amp;quot;Times New Roman&amp;quot;,serif;mso-fareast-font-family:Calibri;mso-fareast-theme-font:&lt;br/&gt;minor-latin;mso-ansi-language:HU;mso-fareast-language:EN-US;mso-bidi-language:&lt;br/&gt;AR-SA&quot;&gt;TotalPrice&lt;/span&gt;" style="ellipse;whiteSpace=wrap;html=1;align=center;" parent="1" vertex="1">
          <mxGeometry x="780" y="775" width="100" height="40" as="geometry" />
        </mxCell>
        <mxCell id="6xBrh_6f9ubQhlfFWh0M-19" value="&lt;span style=&quot;font-size:12.0pt;line-height:107%;&lt;br/&gt;font-family:&amp;quot;Times New Roman&amp;quot;,serif;mso-fareast-font-family:Calibri;mso-fareast-theme-font:&lt;br/&gt;minor-latin;mso-ansi-language:HU;mso-fareast-language:EN-US;mso-bidi-language:&lt;br/&gt;AR-SA&quot;&gt;Status&lt;/span&gt;" style="ellipse;whiteSpace=wrap;html=1;align=center;" parent="1" vertex="1">
          <mxGeometry x="490" y="815" width="100" height="40" as="geometry" />
        </mxCell>
        <mxCell id="6xBrh_6f9ubQhlfFWh0M-20" value="&lt;span style=&quot;font-size:12.0pt;line-height:107%;&lt;br/&gt;font-family:&amp;quot;Times New Roman&amp;quot;,serif;mso-fareast-font-family:Calibri;mso-fareast-theme-font:&lt;br/&gt;minor-latin;mso-ansi-language:HU;mso-fareast-language:EN-US;mso-bidi-language:&lt;br/&gt;AR-SA&quot;&gt;Name&lt;/span&gt;" style="ellipse;whiteSpace=wrap;html=1;align=center;" parent="1" vertex="1">
          <mxGeometry x="650" y="70" width="100" height="40" as="geometry" />
        </mxCell>
        <mxCell id="6xBrh_6f9ubQhlfFWh0M-21" value="&lt;span style=&quot;font-size:12.0pt;line-height:107%;&lt;br/&gt;font-family:&amp;quot;Times New Roman&amp;quot;,serif;mso-fareast-font-family:Calibri;mso-fareast-theme-font:&lt;br/&gt;minor-latin;mso-ansi-language:HU;mso-fareast-language:EN-US;mso-bidi-language:&lt;br/&gt;AR-SA&quot;&gt;Email&lt;/span&gt;" style="ellipse;whiteSpace=wrap;html=1;align=center;" parent="1" vertex="1">
          <mxGeometry x="460" y="-20" width="100" height="40" as="geometry" />
        </mxCell>
        <mxCell id="6xBrh_6f9ubQhlfFWh0M-22" value="&lt;span style=&quot;font-size:12.0pt;line-height:107%;&lt;br/&gt;font-family:&amp;quot;Times New Roman&amp;quot;,serif;mso-fareast-font-family:Calibri;mso-fareast-theme-font:&lt;br/&gt;minor-latin;mso-ansi-language:HU;mso-fareast-language:EN-US;mso-bidi-language:&lt;br/&gt;AR-SA&quot;&gt;Password&lt;/span&gt;" style="ellipse;whiteSpace=wrap;html=1;align=center;" parent="1" vertex="1">
          <mxGeometry x="660" y="-20" width="100" height="40" as="geometry" />
        </mxCell>
        <mxCell id="6xBrh_6f9ubQhlfFWh0M-24" value="&lt;span style=&quot;font-size:12.0pt;line-height:107%;&lt;br/&gt;font-family:&amp;quot;Times New Roman&amp;quot;,serif;mso-fareast-font-family:Calibri;mso-fareast-theme-font:&lt;br/&gt;minor-latin;mso-ansi-language:HU;mso-fareast-language:EN-US;mso-bidi-language:&lt;br/&gt;AR-SA&quot;&gt;OrderId&lt;/span&gt;" style="ellipse;whiteSpace=wrap;html=1;align=center;" parent="1" vertex="1">
          <mxGeometry x="-40" y="675" width="100" height="40" as="geometry" />
        </mxCell>
        <mxCell id="6xBrh_6f9ubQhlfFWh0M-25" value="&lt;span style=&quot;font-size:12.0pt;line-height:107%;&lt;br/&gt;font-family:&amp;quot;Times New Roman&amp;quot;,serif;mso-fareast-font-family:Calibri;mso-fareast-theme-font:&lt;br/&gt;minor-latin;mso-ansi-language:HU;mso-fareast-language:EN-US;mso-bidi-language:&lt;br/&gt;AR-SA&quot;&gt;Name&lt;/span&gt;" style="ellipse;whiteSpace=wrap;html=1;align=center;" parent="1" vertex="1">
          <mxGeometry x="-80" y="410" width="100" height="40" as="geometry" />
        </mxCell>
        <mxCell id="6xBrh_6f9ubQhlfFWh0M-26" value="&lt;span style=&quot;font-size:12.0pt;line-height:107%;&lt;br/&gt;font-family:&amp;quot;Times New Roman&amp;quot;,serif;mso-fareast-font-family:Calibri;mso-fareast-theme-font:&lt;br/&gt;minor-latin;mso-ansi-language:HU;mso-fareast-language:EN-US;mso-bidi-language:&lt;br/&gt;AR-SA&quot;&gt;Quantity&lt;/span&gt;" style="ellipse;whiteSpace=wrap;html=1;align=center;" parent="1" vertex="1">
          <mxGeometry x="70" y="390" width="100" height="40" as="geometry" />
        </mxCell>
        <mxCell id="6xBrh_6f9ubQhlfFWh0M-27" value="&lt;span style=&quot;font-size:12.0pt;line-height:107%;&lt;br/&gt;font-family:&amp;quot;Times New Roman&amp;quot;,serif;mso-fareast-font-family:Calibri;mso-fareast-theme-font:&lt;br/&gt;minor-latin;mso-ansi-language:HU;mso-fareast-language:EN-US;mso-bidi-language:&lt;br/&gt;AR-SA&quot;&gt;Price&lt;/span&gt;" style="ellipse;whiteSpace=wrap;html=1;align=center;" parent="1" vertex="1">
          <mxGeometry x="70" y="735" width="100" height="40" as="geometry" />
        </mxCell>
        <mxCell id="6xBrh_6f9ubQhlfFWh0M-33" style="edgeStyle=orthogonalEdgeStyle;rounded=0;orthogonalLoop=1;jettySize=auto;html=1;entryX=0;entryY=0.5;entryDx=0;entryDy=0;" parent="1" source="6xBrh_6f9ubQhlfFWh0M-28" target="6xBrh_6f9ubQhlfFWh0M-13" edge="1">
          <mxGeometry relative="1" as="geometry" />
        </mxCell>
        <mxCell id="6xBrh_6f9ubQhlfFWh0M-34" style="edgeStyle=orthogonalEdgeStyle;rounded=0;orthogonalLoop=1;jettySize=auto;html=1;entryX=1;entryY=0.5;entryDx=0;entryDy=0;" parent="1" source="6xBrh_6f9ubQhlfFWh0M-28" target="6xBrh_6f9ubQhlfFWh0M-14" edge="1">
          <mxGeometry relative="1" as="geometry" />
        </mxCell>
        <mxCell id="6xBrh_6f9ubQhlfFWh0M-28" value="&lt;font style=&quot;font-size: 14px;&quot;&gt;Ordered:items&lt;/font&gt;" style="shape=rhombus;perimeter=rhombusPerimeter;whiteSpace=wrap;html=1;align=center;" parent="1" vertex="1">
          <mxGeometry x="300" y="557.5" width="130" height="55" as="geometry" />
        </mxCell>
        <mxCell id="6xBrh_6f9ubQhlfFWh0M-31" style="edgeStyle=orthogonalEdgeStyle;rounded=0;orthogonalLoop=1;jettySize=auto;html=1;entryX=0.5;entryY=0;entryDx=0;entryDy=0;" parent="1" source="6xBrh_6f9ubQhlfFWh0M-30" target="6xBrh_6f9ubQhlfFWh0M-13" edge="1">
          <mxGeometry relative="1" as="geometry" />
        </mxCell>
        <mxCell id="6xBrh_6f9ubQhlfFWh0M-32" style="edgeStyle=orthogonalEdgeStyle;rounded=0;orthogonalLoop=1;jettySize=auto;html=1;entryX=0.5;entryY=1;entryDx=0;entryDy=0;" parent="1" source="6xBrh_6f9ubQhlfFWh0M-30" target="6xBrh_6f9ubQhlfFWh0M-12" edge="1">
          <mxGeometry relative="1" as="geometry" />
        </mxCell>
        <mxCell id="6xBrh_6f9ubQhlfFWh0M-30" value="&lt;font style=&quot;font-size: 14px;&quot;&gt;User-Orders&lt;/font&gt;" style="shape=rhombus;perimeter=rhombusPerimeter;whiteSpace=wrap;html=1;align=center;" parent="1" vertex="1">
          <mxGeometry x="552.5" y="390" width="115" height="55" as="geometry" />
        </mxCell>
        <mxCell id="Rk4fHZE66jtxpxEKPoya-1" value="N" style="text;strokeColor=none;fillColor=none;spacingLeft=4;spacingRight=4;overflow=hidden;rotatable=0;points=[[0,0.5],[1,0.5]];portConstraint=eastwest;fontSize=12;whiteSpace=wrap;html=1;" parent="1" vertex="1">
          <mxGeometry x="170" y="557" width="40" height="30" as="geometry" />
        </mxCell>
        <mxCell id="Rk4fHZE66jtxpxEKPoya-2" value="1" style="text;whiteSpace=wrap;html=1;" parent="1" vertex="1">
          <mxGeometry x="530" y="557" width="60" height="40" as="geometry" />
        </mxCell>
        <mxCell id="Rk4fHZE66jtxpxEKPoya-5" value="N" style="text;strokeColor=none;fillColor=none;spacingLeft=4;spacingRight=4;overflow=hidden;rotatable=0;points=[[0,0.5],[1,0.5]];portConstraint=eastwest;fontSize=12;whiteSpace=wrap;html=1;" parent="1" vertex="1">
          <mxGeometry x="580" y="532" width="40" height="30" as="geometry" />
        </mxCell>
        <mxCell id="Rk4fHZE66jtxpxEKPoya-6" value="1" style="text;strokeColor=none;fillColor=none;spacingLeft=4;spacingRight=4;overflow=hidden;rotatable=0;points=[[0,0.5],[1,0.5]];portConstraint=eastwest;fontSize=12;whiteSpace=wrap;html=1;" parent="1" vertex="1">
          <mxGeometry x="580" y="270" width="40" height="30" as="geometry" />
        </mxCell>
        <mxCell id="Rk4fHZE66jtxpxEKPoya-8" value="&lt;font style=&quot;font-size: 17px;&quot;&gt;Id&lt;/font&gt;" style="ellipse;whiteSpace=wrap;html=1;align=center;fontStyle=4;" parent="1" vertex="1">
          <mxGeometry x="1055" y="565" width="100" height="40" as="geometry" />
        </mxCell>
        <mxCell id="Rk4fHZE66jtxpxEKPoya-9" value="&lt;font style=&quot;font-size: 17px;&quot;&gt;Id&lt;/font&gt;" style="ellipse;whiteSpace=wrap;html=1;align=center;fontStyle=4;" parent="1" vertex="1">
          <mxGeometry x="560" y="-90" width="100" height="40" as="geometry" />
        </mxCell>
        <mxCell id="Rk4fHZE66jtxpxEKPoya-10" value="&lt;font style=&quot;font-size: 17px;&quot;&gt;Id&lt;/font&gt;" style="ellipse;whiteSpace=wrap;html=1;align=center;fontStyle=4;" parent="1" vertex="1">
          <mxGeometry x="-160" y="565" width="100" height="40" as="geometry" />
        </mxCell>
        <mxCell id="Rk4fHZE66jtxpxEKPoya-11" value="&lt;font style=&quot;font-size: 17px;&quot;&gt;Id&lt;/font&gt;" style="ellipse;whiteSpace=wrap;html=1;align=center;fontStyle=4;" parent="1" vertex="1">
          <mxGeometry x="350" y="90" width="100" height="40" as="geometry" />
        </mxCell>
        <mxCell id="Rk4fHZE66jtxpxEKPoya-26" style="edgeStyle=orthogonalEdgeStyle;rounded=0;orthogonalLoop=1;jettySize=auto;html=1;entryX=0.5;entryY=1;entryDx=0;entryDy=0;endArrow=none;endFill=0;" parent="1" source="Rk4fHZE66jtxpxEKPoya-30" target="Rk4fHZE66jtxpxEKPoya-32" edge="1">
          <mxGeometry relative="1" as="geometry" />
        </mxCell>
        <mxCell id="Rk4fHZE66jtxpxEKPoya-27" style="edgeStyle=orthogonalEdgeStyle;rounded=0;orthogonalLoop=1;jettySize=auto;html=1;entryX=0.5;entryY=0;entryDx=0;entryDy=0;endArrow=none;endFill=0;" parent="1" source="Rk4fHZE66jtxpxEKPoya-30" target="Rk4fHZE66jtxpxEKPoya-33" edge="1">
          <mxGeometry relative="1" as="geometry" />
        </mxCell>
        <mxCell id="Rk4fHZE66jtxpxEKPoya-28" style="edgeStyle=orthogonalEdgeStyle;rounded=0;orthogonalLoop=1;jettySize=auto;html=1;entryX=0;entryY=0.5;entryDx=0;entryDy=0;endArrow=none;endFill=0;" parent="1" source="Rk4fHZE66jtxpxEKPoya-30" target="Rk4fHZE66jtxpxEKPoya-31" edge="1">
          <mxGeometry relative="1" as="geometry" />
        </mxCell>
        <mxCell id="Rk4fHZE66jtxpxEKPoya-29" value="" style="edgeStyle=orthogonalEdgeStyle;rounded=0;orthogonalLoop=1;jettySize=auto;html=1;endArrow=none;endFill=0;" parent="1" source="Rk4fHZE66jtxpxEKPoya-30" target="Rk4fHZE66jtxpxEKPoya-35" edge="1">
          <mxGeometry relative="1" as="geometry" />
        </mxCell>
        <mxCell id="Rk4fHZE66jtxpxEKPoya-39" value="" style="edgeStyle=orthogonalEdgeStyle;rounded=0;orthogonalLoop=1;jettySize=auto;html=1;endArrow=none;endFill=0;" parent="1" source="Rk4fHZE66jtxpxEKPoya-30" target="Rk4fHZE66jtxpxEKPoya-38" edge="1">
          <mxGeometry relative="1" as="geometry" />
        </mxCell>
        <mxCell id="Rk4fHZE66jtxpxEKPoya-40" value="" style="edgeStyle=orthogonalEdgeStyle;rounded=0;orthogonalLoop=1;jettySize=auto;html=1;endArrow=none;endFill=0;" parent="1" source="Rk4fHZE66jtxpxEKPoya-30" target="Rk4fHZE66jtxpxEKPoya-37" edge="1">
          <mxGeometry relative="1" as="geometry" />
        </mxCell>
        <mxCell id="Rk4fHZE66jtxpxEKPoya-41" style="edgeStyle=orthogonalEdgeStyle;rounded=0;orthogonalLoop=1;jettySize=auto;html=1;entryX=0.5;entryY=0;entryDx=0;entryDy=0;endArrow=none;endFill=0;" parent="1" source="Rk4fHZE66jtxpxEKPoya-30" target="Rk4fHZE66jtxpxEKPoya-36" edge="1">
          <mxGeometry relative="1" as="geometry" />
        </mxCell>
        <mxCell id="Rk4fHZE66jtxpxEKPoya-30" value="&lt;font style=&quot;font-size: 14px;&quot;&gt;Jobs&lt;/font&gt;" style="whiteSpace=wrap;html=1;align=center;" parent="1" vertex="1">
          <mxGeometry x="1210" y="855" width="100" height="40" as="geometry" />
        </mxCell>
        <mxCell id="Rk4fHZE66jtxpxEKPoya-31" value="&lt;span style=&quot;font-size:12.0pt;line-height:107%;&lt;br/&gt;font-family:&amp;quot;Times New Roman&amp;quot;,serif;mso-fareast-font-family:Calibri;mso-fareast-theme-font:&lt;br/&gt;minor-latin;mso-ansi-language:HU;mso-fareast-language:EN-US;mso-bidi-language:&lt;br/&gt;AR-SA&quot;&gt;Payload&lt;/span&gt;" style="ellipse;whiteSpace=wrap;html=1;align=center;" parent="1" vertex="1">
          <mxGeometry x="1470" y="855" width="100" height="40" as="geometry" />
        </mxCell>
        <mxCell id="Rk4fHZE66jtxpxEKPoya-32" value="&lt;span style=&quot;font-size:12.0pt;line-height:107%;&lt;br/&gt;font-family:&amp;quot;Times New Roman&amp;quot;,serif;mso-fareast-font-family:Calibri;mso-fareast-theme-font:&lt;br/&gt;minor-latin;mso-ansi-language:HU;mso-fareast-language:EN-US;mso-bidi-language:&lt;br/&gt;AR-SA&quot;&gt;Queue&lt;/span&gt;" style="ellipse;whiteSpace=wrap;html=1;align=center;" parent="1" vertex="1">
          <mxGeometry x="1350" y="795" width="100" height="40" as="geometry" />
        </mxCell>
        <mxCell id="Rk4fHZE66jtxpxEKPoya-33" value="&lt;span style=&quot;font-size:12.0pt;line-height:107%;&lt;br/&gt;font-family:&amp;quot;Times New Roman&amp;quot;,serif;mso-fareast-font-family:Calibri;mso-fareast-theme-font:&lt;br/&gt;minor-latin;mso-ansi-language:HU;mso-fareast-language:EN-US;mso-bidi-language:&lt;br/&gt;AR-SA&quot;&gt;Attempts&lt;/span&gt;" style="ellipse;whiteSpace=wrap;html=1;align=center;" parent="1" vertex="1">
          <mxGeometry x="1350" y="915" width="100" height="40" as="geometry" />
        </mxCell>
        <mxCell id="Rk4fHZE66jtxpxEKPoya-35" value="&lt;font style=&quot;font-size: 17px;&quot;&gt;Id&lt;/font&gt;" style="ellipse;whiteSpace=wrap;html=1;align=center;fontStyle=4;" parent="1" vertex="1">
          <mxGeometry x="1210" y="715" width="100" height="40" as="geometry" />
        </mxCell>
        <mxCell id="Rk4fHZE66jtxpxEKPoya-36" value="&lt;span style=&quot;font-size:12.0pt;line-height:107%;&lt;br/&gt;font-family:&amp;quot;Times New Roman&amp;quot;,serif;mso-fareast-font-family:Calibri;mso-fareast-theme-font:&lt;br/&gt;minor-latin;mso-ansi-language:HU;mso-fareast-language:EN-US;mso-bidi-language:&lt;br/&gt;AR-SA&quot;&gt;Reserved_at&lt;/span&gt;" style="ellipse;whiteSpace=wrap;html=1;align=center;" parent="1" vertex="1">
          <mxGeometry x="1120" y="1005" width="100" height="40" as="geometry" />
        </mxCell>
        <mxCell id="Rk4fHZE66jtxpxEKPoya-37" value="&lt;span style=&quot;font-size:12.0pt;line-height:107%;&lt;br/&gt;font-family:&amp;quot;Times New Roman&amp;quot;,serif;mso-fareast-font-family:Calibri;mso-fareast-theme-font:&lt;br/&gt;minor-latin;mso-ansi-language:HU;mso-fareast-language:EN-US;mso-bidi-language:&lt;br/&gt;AR-SA&quot;&gt;Available_at&lt;/span&gt;" style="ellipse;whiteSpace=wrap;html=1;align=center;" parent="1" vertex="1">
          <mxGeometry x="1010" y="855" width="100" height="40" as="geometry" />
        </mxCell>
        <mxCell id="Rk4fHZE66jtxpxEKPoya-38" value="&lt;span style=&quot;font-size:12.0pt;line-height:107%;&lt;br/&gt;font-family:&amp;quot;Times New Roman&amp;quot;,serif;mso-fareast-font-family:Calibri;mso-fareast-theme-font:&lt;br/&gt;minor-latin;mso-ansi-language:HU;mso-fareast-language:EN-US;mso-bidi-language:&lt;br/&gt;AR-SA&quot;&gt;Created_at&lt;/span&gt;" style="ellipse;whiteSpace=wrap;html=1;align=center;" parent="1" vertex="1">
          <mxGeometry x="1290" y="1005" width="100" height="40" as="geometry" />
        </mxCell>
        <mxCell id="Rk4fHZE66jtxpxEKPoya-42" style="edgeStyle=orthogonalEdgeStyle;rounded=0;orthogonalLoop=1;jettySize=auto;html=1;entryX=0.5;entryY=1;entryDx=0;entryDy=0;endArrow=none;endFill=0;" parent="1" source="Rk4fHZE66jtxpxEKPoya-49" target="Rk4fHZE66jtxpxEKPoya-51" edge="1">
          <mxGeometry relative="1" as="geometry" />
        </mxCell>
        <mxCell id="Rk4fHZE66jtxpxEKPoya-43" style="edgeStyle=orthogonalEdgeStyle;rounded=0;orthogonalLoop=1;jettySize=auto;html=1;entryX=0.5;entryY=0;entryDx=0;entryDy=0;endArrow=none;endFill=0;" parent="1" source="Rk4fHZE66jtxpxEKPoya-49" target="Rk4fHZE66jtxpxEKPoya-52" edge="1">
          <mxGeometry relative="1" as="geometry" />
        </mxCell>
        <mxCell id="Rk4fHZE66jtxpxEKPoya-44" style="edgeStyle=orthogonalEdgeStyle;rounded=0;orthogonalLoop=1;jettySize=auto;html=1;entryX=0;entryY=0.5;entryDx=0;entryDy=0;endArrow=none;endFill=0;" parent="1" source="Rk4fHZE66jtxpxEKPoya-49" target="Rk4fHZE66jtxpxEKPoya-50" edge="1">
          <mxGeometry relative="1" as="geometry" />
        </mxCell>
        <mxCell id="Rk4fHZE66jtxpxEKPoya-45" value="" style="edgeStyle=orthogonalEdgeStyle;rounded=0;orthogonalLoop=1;jettySize=auto;html=1;endArrow=none;endFill=0;" parent="1" source="Rk4fHZE66jtxpxEKPoya-49" target="Rk4fHZE66jtxpxEKPoya-53" edge="1">
          <mxGeometry relative="1" as="geometry" />
        </mxCell>
        <mxCell id="Rk4fHZE66jtxpxEKPoya-46" value="" style="edgeStyle=orthogonalEdgeStyle;rounded=0;orthogonalLoop=1;jettySize=auto;html=1;endArrow=none;endFill=0;" parent="1" source="Rk4fHZE66jtxpxEKPoya-49" target="Rk4fHZE66jtxpxEKPoya-56" edge="1">
          <mxGeometry relative="1" as="geometry" />
        </mxCell>
        <mxCell id="Rk4fHZE66jtxpxEKPoya-47" value="" style="edgeStyle=orthogonalEdgeStyle;rounded=0;orthogonalLoop=1;jettySize=auto;html=1;endArrow=none;endFill=0;" parent="1" source="Rk4fHZE66jtxpxEKPoya-49" target="Rk4fHZE66jtxpxEKPoya-55" edge="1">
          <mxGeometry relative="1" as="geometry" />
        </mxCell>
        <mxCell id="Rk4fHZE66jtxpxEKPoya-48" style="edgeStyle=orthogonalEdgeStyle;rounded=0;orthogonalLoop=1;jettySize=auto;html=1;entryX=0.5;entryY=0;entryDx=0;entryDy=0;endArrow=none;endFill=0;" parent="1" source="Rk4fHZE66jtxpxEKPoya-49" target="Rk4fHZE66jtxpxEKPoya-54" edge="1">
          <mxGeometry relative="1" as="geometry" />
        </mxCell>
        <mxCell id="Rk4fHZE66jtxpxEKPoya-60" style="edgeStyle=orthogonalEdgeStyle;rounded=0;orthogonalLoop=1;jettySize=auto;html=1;entryX=0.5;entryY=0;entryDx=0;entryDy=0;endArrow=none;endFill=0;" parent="1" source="Rk4fHZE66jtxpxEKPoya-49" target="Rk4fHZE66jtxpxEKPoya-58" edge="1">
          <mxGeometry relative="1" as="geometry" />
        </mxCell>
        <mxCell id="Rk4fHZE66jtxpxEKPoya-61" style="edgeStyle=orthogonalEdgeStyle;rounded=0;orthogonalLoop=1;jettySize=auto;html=1;entryX=0.5;entryY=1;entryDx=0;entryDy=0;endArrow=none;endFill=0;" parent="1" source="Rk4fHZE66jtxpxEKPoya-49" target="Rk4fHZE66jtxpxEKPoya-57" edge="1">
          <mxGeometry relative="1" as="geometry" />
        </mxCell>
        <mxCell id="Rk4fHZE66jtxpxEKPoya-62" style="edgeStyle=orthogonalEdgeStyle;rounded=0;orthogonalLoop=1;jettySize=auto;html=1;entryX=0.5;entryY=0;entryDx=0;entryDy=0;endArrow=none;endFill=0;" parent="1" source="Rk4fHZE66jtxpxEKPoya-49" target="Rk4fHZE66jtxpxEKPoya-59" edge="1">
          <mxGeometry relative="1" as="geometry" />
        </mxCell>
        <mxCell id="Rk4fHZE66jtxpxEKPoya-49" value="&lt;font style=&quot;font-size: 14px;&quot;&gt;Job_Batches&lt;/font&gt;" style="whiteSpace=wrap;html=1;align=center;" parent="1" vertex="1">
          <mxGeometry x="1010" y="1250" width="100" height="40" as="geometry" />
        </mxCell>
        <mxCell id="Rk4fHZE66jtxpxEKPoya-50" value="&lt;span style=&quot;font-size:12.0pt;line-height:107%;&lt;br/&gt;font-family:&amp;quot;Times New Roman&amp;quot;,serif;mso-fareast-font-family:Calibri;mso-fareast-theme-font:&lt;br/&gt;minor-latin;mso-ansi-language:HU;mso-fareast-language:EN-US;mso-bidi-language:&lt;br/&gt;AR-SA&quot;&gt;Total_jobs&lt;/span&gt;" style="ellipse;whiteSpace=wrap;html=1;align=center;" parent="1" vertex="1">
          <mxGeometry x="1270" y="1250" width="100" height="40" as="geometry" />
        </mxCell>
        <mxCell id="Rk4fHZE66jtxpxEKPoya-51" value="&lt;span style=&quot;font-size:12.0pt;line-height:107%;&lt;br/&gt;font-family:&amp;quot;Times New Roman&amp;quot;,serif;mso-fareast-font-family:Calibri;mso-fareast-theme-font:&lt;br/&gt;minor-latin;mso-ansi-language:HU;mso-fareast-language:EN-US;mso-bidi-language:&lt;br/&gt;AR-SA&quot;&gt;Name&lt;/span&gt;" style="ellipse;whiteSpace=wrap;html=1;align=center;" parent="1" vertex="1">
          <mxGeometry x="1155" y="1190" width="100" height="40" as="geometry" />
        </mxCell>
        <mxCell id="Rk4fHZE66jtxpxEKPoya-52" value="&lt;span style=&quot;font-size:12.0pt;line-height:107%;&lt;br/&gt;font-family:&amp;quot;Times New Roman&amp;quot;,serif;mso-fareast-font-family:Calibri;mso-fareast-theme-font:&lt;br/&gt;minor-latin;mso-ansi-language:HU;mso-fareast-language:EN-US;mso-bidi-language:&lt;br/&gt;AR-SA&quot;&gt;Pending_jobs&lt;/span&gt;" style="ellipse;whiteSpace=wrap;html=1;align=center;" parent="1" vertex="1">
          <mxGeometry x="1145" y="1310" width="120" height="40" as="geometry" />
        </mxCell>
        <mxCell id="Rk4fHZE66jtxpxEKPoya-53" value="&lt;font style=&quot;font-size: 17px;&quot;&gt;Id&lt;/font&gt;" style="ellipse;whiteSpace=wrap;html=1;align=center;fontStyle=4;" parent="1" vertex="1">
          <mxGeometry x="1010" y="1110" width="100" height="40" as="geometry" />
        </mxCell>
        <mxCell id="Rk4fHZE66jtxpxEKPoya-54" value="&lt;span style=&quot;font-size:12.0pt;line-height:107%;&lt;br/&gt;font-family:&amp;quot;Times New Roman&amp;quot;,serif;mso-fareast-font-family:Calibri;mso-fareast-theme-font:&lt;br/&gt;minor-latin;mso-ansi-language:HU;mso-fareast-language:EN-US;mso-bidi-language:&lt;br/&gt;AR-SA&quot;&gt;Failed_job_ids&lt;/span&gt;" style="ellipse;whiteSpace=wrap;html=1;align=center;" parent="1" vertex="1">
          <mxGeometry x="920" y="1400" width="120" height="40" as="geometry" />
        </mxCell>
        <mxCell id="Rk4fHZE66jtxpxEKPoya-55" value="&lt;span style=&quot;font-size: 16px;&quot;&gt;Options&lt;/span&gt;" style="ellipse;whiteSpace=wrap;html=1;align=center;" parent="1" vertex="1">
          <mxGeometry x="750" y="1250" width="100" height="40" as="geometry" />
        </mxCell>
        <mxCell id="Rk4fHZE66jtxpxEKPoya-56" value="&lt;span style=&quot;font-size:12.0pt;line-height:107%;&lt;br/&gt;font-family:&amp;quot;Times New Roman&amp;quot;,serif;mso-fareast-font-family:Calibri;mso-fareast-theme-font:&lt;br/&gt;minor-latin;mso-ansi-language:HU;mso-fareast-language:EN-US;mso-bidi-language:&lt;br/&gt;AR-SA&quot;&gt;Failed_jobs&lt;/span&gt;" style="ellipse;whiteSpace=wrap;html=1;align=center;" parent="1" vertex="1">
          <mxGeometry x="1090" y="1400" width="100" height="40" as="geometry" />
        </mxCell>
        <mxCell id="Rk4fHZE66jtxpxEKPoya-57" value="&lt;span style=&quot;font-size: 16px;&quot;&gt;Cancelled_at&lt;/span&gt;" style="ellipse;whiteSpace=wrap;html=1;align=center;" parent="1" vertex="1">
          <mxGeometry x="855" y="1169" width="110" height="40" as="geometry" />
        </mxCell>
        <mxCell id="Rk4fHZE66jtxpxEKPoya-58" value="&lt;span style=&quot;font-size: 16px;&quot;&gt;Finished_at&lt;/span&gt;" style="ellipse;whiteSpace=wrap;html=1;align=center;" parent="1" vertex="1">
          <mxGeometry x="1010" y="1480" width="100" height="40" as="geometry" />
        </mxCell>
        <mxCell id="Rk4fHZE66jtxpxEKPoya-59" value="&lt;span style=&quot;font-size: 16px;&quot;&gt;Created_at&lt;/span&gt;" style="ellipse;whiteSpace=wrap;html=1;align=center;" parent="1" vertex="1">
          <mxGeometry x="860" y="1320" width="100" height="40" as="geometry" />
        </mxCell>
        <mxCell id="Rk4fHZE66jtxpxEKPoya-63" style="edgeStyle=orthogonalEdgeStyle;rounded=0;orthogonalLoop=1;jettySize=auto;html=1;entryX=0.5;entryY=1;entryDx=0;entryDy=0;endArrow=none;endFill=0;" parent="1" source="Rk4fHZE66jtxpxEKPoya-70" target="Rk4fHZE66jtxpxEKPoya-72" edge="1">
          <mxGeometry relative="1" as="geometry" />
        </mxCell>
        <mxCell id="Rk4fHZE66jtxpxEKPoya-64" style="edgeStyle=orthogonalEdgeStyle;rounded=0;orthogonalLoop=1;jettySize=auto;html=1;entryX=0.5;entryY=0;entryDx=0;entryDy=0;endArrow=none;endFill=0;" parent="1" source="Rk4fHZE66jtxpxEKPoya-70" target="Rk4fHZE66jtxpxEKPoya-73" edge="1">
          <mxGeometry relative="1" as="geometry" />
        </mxCell>
        <mxCell id="Rk4fHZE66jtxpxEKPoya-65" style="edgeStyle=orthogonalEdgeStyle;rounded=0;orthogonalLoop=1;jettySize=auto;html=1;entryX=0;entryY=0.5;entryDx=0;entryDy=0;endArrow=none;endFill=0;" parent="1" source="Rk4fHZE66jtxpxEKPoya-70" target="Rk4fHZE66jtxpxEKPoya-71" edge="1">
          <mxGeometry relative="1" as="geometry" />
        </mxCell>
        <mxCell id="Rk4fHZE66jtxpxEKPoya-66" value="" style="edgeStyle=orthogonalEdgeStyle;rounded=0;orthogonalLoop=1;jettySize=auto;html=1;endArrow=none;endFill=0;" parent="1" source="Rk4fHZE66jtxpxEKPoya-70" target="Rk4fHZE66jtxpxEKPoya-74" edge="1">
          <mxGeometry relative="1" as="geometry" />
        </mxCell>
        <mxCell id="Rk4fHZE66jtxpxEKPoya-67" value="" style="edgeStyle=orthogonalEdgeStyle;rounded=0;orthogonalLoop=1;jettySize=auto;html=1;endArrow=none;endFill=0;" parent="1" source="Rk4fHZE66jtxpxEKPoya-70" target="Rk4fHZE66jtxpxEKPoya-77" edge="1">
          <mxGeometry relative="1" as="geometry" />
        </mxCell>
        <mxCell id="Rk4fHZE66jtxpxEKPoya-69" style="edgeStyle=orthogonalEdgeStyle;rounded=0;orthogonalLoop=1;jettySize=auto;html=1;entryX=0.5;entryY=0;entryDx=0;entryDy=0;endArrow=none;endFill=0;" parent="1" source="Rk4fHZE66jtxpxEKPoya-70" target="Rk4fHZE66jtxpxEKPoya-75" edge="1">
          <mxGeometry relative="1" as="geometry" />
        </mxCell>
        <mxCell id="pAfpiLtt0J3ozyGTxGGi-2" style="edgeStyle=orthogonalEdgeStyle;rounded=0;orthogonalLoop=1;jettySize=auto;html=1;startArrow=none;startFill=0;endArrow=none;" edge="1" parent="1" source="Rk4fHZE66jtxpxEKPoya-70" target="Rk4fHZE66jtxpxEKPoya-76">
          <mxGeometry relative="1" as="geometry" />
        </mxCell>
        <mxCell id="Rk4fHZE66jtxpxEKPoya-70" value="&lt;font style=&quot;font-size: 14px;&quot;&gt;Failed_jobs&lt;/font&gt;" style="whiteSpace=wrap;html=1;align=center;" parent="1" vertex="1">
          <mxGeometry x="430" y="1150" width="100" height="40" as="geometry" />
        </mxCell>
        <mxCell id="Rk4fHZE66jtxpxEKPoya-71" value="&lt;span style=&quot;font-size:12.0pt;line-height:107%;&lt;br/&gt;font-family:&amp;quot;Times New Roman&amp;quot;,serif;mso-fareast-font-family:Calibri;mso-fareast-theme-font:&lt;br/&gt;minor-latin;mso-ansi-language:HU;mso-fareast-language:EN-US;mso-bidi-language:&lt;br/&gt;AR-SA&quot;&gt;Connection&lt;/span&gt;" style="ellipse;whiteSpace=wrap;html=1;align=center;" parent="1" vertex="1">
          <mxGeometry x="690" y="1150" width="100" height="40" as="geometry" />
        </mxCell>
        <mxCell id="Rk4fHZE66jtxpxEKPoya-72" value="&lt;span style=&quot;font-size:12.0pt;line-height:107%;&lt;br/&gt;font-family:&amp;quot;Times New Roman&amp;quot;,serif;mso-fareast-font-family:Calibri;mso-fareast-theme-font:&lt;br/&gt;minor-latin;mso-ansi-language:HU;mso-fareast-language:EN-US;mso-bidi-language:&lt;br/&gt;AR-SA&quot;&gt;Uuid&lt;/span&gt;" style="ellipse;whiteSpace=wrap;html=1;align=center;" parent="1" vertex="1">
          <mxGeometry x="570" y="1090" width="100" height="40" as="geometry" />
        </mxCell>
        <mxCell id="Rk4fHZE66jtxpxEKPoya-73" value="&lt;span style=&quot;font-size:12.0pt;line-height:107%;&lt;br/&gt;font-family:&amp;quot;Times New Roman&amp;quot;,serif;mso-fareast-font-family:Calibri;mso-fareast-theme-font:&lt;br/&gt;minor-latin;mso-ansi-language:HU;mso-fareast-language:EN-US;mso-bidi-language:&lt;br/&gt;AR-SA&quot;&gt;Queue&lt;/span&gt;" style="ellipse;whiteSpace=wrap;html=1;align=center;" parent="1" vertex="1">
          <mxGeometry x="570" y="1210" width="100" height="40" as="geometry" />
        </mxCell>
        <mxCell id="Rk4fHZE66jtxpxEKPoya-74" value="&lt;font style=&quot;font-size: 17px;&quot;&gt;Id&lt;/font&gt;" style="ellipse;whiteSpace=wrap;html=1;align=center;fontStyle=4;" parent="1" vertex="1">
          <mxGeometry x="430" y="1010" width="100" height="40" as="geometry" />
        </mxCell>
        <mxCell id="Rk4fHZE66jtxpxEKPoya-75" value="&lt;span style=&quot;font-size:12.0pt;line-height:107%;&lt;br/&gt;font-family:&amp;quot;Times New Roman&amp;quot;,serif;mso-fareast-font-family:Calibri;mso-fareast-theme-font:&lt;br/&gt;minor-latin;mso-ansi-language:HU;mso-fareast-language:EN-US;mso-bidi-language:&lt;br/&gt;AR-SA&quot;&gt;Exception&lt;/span&gt;" style="ellipse;whiteSpace=wrap;html=1;align=center;" parent="1" vertex="1">
          <mxGeometry x="340" y="1300" width="100" height="40" as="geometry" />
        </mxCell>
        <mxCell id="Rk4fHZE66jtxpxEKPoya-76" value="&lt;span style=&quot;font-size:12.0pt;line-height:107%;&lt;br/&gt;font-family:&amp;quot;Times New Roman&amp;quot;,serif;mso-fareast-font-family:Calibri;mso-fareast-theme-font:&lt;br/&gt;minor-latin;mso-ansi-language:HU;mso-fareast-language:EN-US;mso-bidi-language:&lt;br/&gt;AR-SA&quot;&gt;Failed_at&lt;/span&gt;" style="ellipse;whiteSpace=wrap;html=1;align=center;" parent="1" vertex="1">
          <mxGeometry x="210" y="1150" width="100" height="40" as="geometry" />
        </mxCell>
        <mxCell id="Rk4fHZE66jtxpxEKPoya-77" value="&lt;span style=&quot;font-size:12.0pt;line-height:107%;&lt;br/&gt;font-family:&amp;quot;Times New Roman&amp;quot;,serif;mso-fareast-font-family:Calibri;mso-fareast-theme-font:&lt;br/&gt;minor-latin;mso-ansi-language:HU;mso-fareast-language:EN-US;mso-bidi-language:&lt;br/&gt;AR-SA&quot;&gt;Payload&lt;/span&gt;" style="ellipse;whiteSpace=wrap;html=1;align=center;" parent="1" vertex="1">
          <mxGeometry x="510" y="1300" width="100" height="40" as="geometry" />
        </mxCell>
        <mxCell id="Rk4fHZE66jtxpxEKPoya-78" value="&lt;span style=&quot;font-size:12.0pt;line-height:107%;&lt;br/&gt;font-family:&amp;quot;Times New Roman&amp;quot;,serif;mso-fareast-font-family:Calibri;mso-fareast-theme-font:&lt;br/&gt;minor-latin;mso-ansi-language:HU;mso-fareast-language:EN-US;mso-bidi-language:&lt;br/&gt;AR-SA&quot;&gt;Email_verified_at&lt;/span&gt;" style="ellipse;whiteSpace=wrap;html=1;align=center;" parent="1" vertex="1">
          <mxGeometry x="650" y="140" width="140" height="40" as="geometry" />
        </mxCell>
        <mxCell id="Rk4fHZE66jtxpxEKPoya-83" style="edgeStyle=orthogonalEdgeStyle;rounded=0;orthogonalLoop=1;jettySize=auto;html=1;entryX=0.5;entryY=1;entryDx=0;entryDy=0;endArrow=none;endFill=0;" parent="1" source="Rk4fHZE66jtxpxEKPoya-88" target="Rk4fHZE66jtxpxEKPoya-90" edge="1">
          <mxGeometry relative="1" as="geometry" />
        </mxCell>
        <mxCell id="Rk4fHZE66jtxpxEKPoya-84" style="edgeStyle=orthogonalEdgeStyle;rounded=0;orthogonalLoop=1;jettySize=auto;html=1;entryX=0.5;entryY=0;entryDx=0;entryDy=0;endArrow=none;endFill=0;" parent="1" source="Rk4fHZE66jtxpxEKPoya-88" target="Rk4fHZE66jtxpxEKPoya-91" edge="1">
          <mxGeometry relative="1" as="geometry" />
        </mxCell>
        <mxCell id="Rk4fHZE66jtxpxEKPoya-85" style="edgeStyle=orthogonalEdgeStyle;rounded=0;orthogonalLoop=1;jettySize=auto;html=1;entryX=0;entryY=0.5;entryDx=0;entryDy=0;endArrow=none;endFill=0;" parent="1" source="Rk4fHZE66jtxpxEKPoya-88" target="Rk4fHZE66jtxpxEKPoya-89" edge="1">
          <mxGeometry relative="1" as="geometry" />
        </mxCell>
        <mxCell id="Rk4fHZE66jtxpxEKPoya-86" value="" style="edgeStyle=orthogonalEdgeStyle;rounded=0;orthogonalLoop=1;jettySize=auto;html=1;endArrow=none;endFill=0;" parent="1" source="Rk4fHZE66jtxpxEKPoya-88" target="Rk4fHZE66jtxpxEKPoya-93" edge="1">
          <mxGeometry relative="1" as="geometry" />
        </mxCell>
        <mxCell id="Rk4fHZE66jtxpxEKPoya-87" style="edgeStyle=orthogonalEdgeStyle;rounded=0;orthogonalLoop=1;jettySize=auto;html=1;entryX=0;entryY=0.5;entryDx=0;entryDy=0;endArrow=none;endFill=0;" parent="1" source="Rk4fHZE66jtxpxEKPoya-88" target="Rk4fHZE66jtxpxEKPoya-94" edge="1">
          <mxGeometry relative="1" as="geometry" />
        </mxCell>
        <mxCell id="Rk4fHZE66jtxpxEKPoya-99" style="edgeStyle=orthogonalEdgeStyle;rounded=0;orthogonalLoop=1;jettySize=auto;html=1;exitX=0.5;exitY=1;exitDx=0;exitDy=0;entryX=0.5;entryY=0;entryDx=0;entryDy=0;endArrow=none;endFill=0;" parent="1" source="Rk4fHZE66jtxpxEKPoya-88" target="Rk4fHZE66jtxpxEKPoya-95" edge="1">
          <mxGeometry relative="1" as="geometry" />
        </mxCell>
        <mxCell id="Rk4fHZE66jtxpxEKPoya-88" value="&lt;font style=&quot;font-size: 14px;&quot;&gt;Sessions&lt;/font&gt;" style="whiteSpace=wrap;html=1;align=center;" parent="1" vertex="1">
          <mxGeometry x="965" y="230" width="100" height="40" as="geometry" />
        </mxCell>
        <mxCell id="Rk4fHZE66jtxpxEKPoya-89" value="&lt;span style=&quot;font-size:12.0pt;line-height:107%;&lt;br/&gt;font-family:&amp;quot;Times New Roman&amp;quot;,serif;mso-fareast-font-family:Calibri;mso-fareast-theme-font:&lt;br/&gt;minor-latin;mso-ansi-language:HU;mso-fareast-language:EN-US;mso-bidi-language:&lt;br/&gt;AR-SA&quot;&gt;User_agent&lt;/span&gt;" style="ellipse;whiteSpace=wrap;html=1;align=center;" parent="1" vertex="1">
          <mxGeometry x="1225" y="230" width="100" height="40" as="geometry" />
        </mxCell>
        <mxCell id="Rk4fHZE66jtxpxEKPoya-90" value="&lt;span style=&quot;font-size:12.0pt;line-height:107%;&lt;br/&gt;font-family:&amp;quot;Times New Roman&amp;quot;,serif;mso-fareast-font-family:Calibri;mso-fareast-theme-font:&lt;br/&gt;minor-latin;mso-ansi-language:HU;mso-fareast-language:EN-US;mso-bidi-language:&lt;br/&gt;AR-SA&quot;&gt;Ip_address&lt;/span&gt;" style="ellipse;whiteSpace=wrap;html=1;align=center;" parent="1" vertex="1">
          <mxGeometry x="1105" y="170" width="100" height="40" as="geometry" />
        </mxCell>
        <mxCell id="Rk4fHZE66jtxpxEKPoya-91" value="&lt;span style=&quot;font-size:12.0pt;line-height:107%;&lt;br/&gt;font-family:&amp;quot;Times New Roman&amp;quot;,serif;mso-fareast-font-family:Calibri;mso-fareast-theme-font:&lt;br/&gt;minor-latin;mso-ansi-language:HU;mso-fareast-language:EN-US;mso-bidi-language:&lt;br/&gt;AR-SA&quot;&gt;Payload&lt;/span&gt;" style="ellipse;whiteSpace=wrap;html=1;align=center;" parent="1" vertex="1">
          <mxGeometry x="1105" y="290" width="100" height="40" as="geometry" />
        </mxCell>
        <mxCell id="Rk4fHZE66jtxpxEKPoya-93" value="&lt;font style=&quot;font-size: 17px;&quot;&gt;Id&lt;/font&gt;" style="ellipse;whiteSpace=wrap;html=1;align=center;fontStyle=4;" parent="1" vertex="1">
          <mxGeometry x="965" y="40" width="100" height="40" as="geometry" />
        </mxCell>
        <mxCell id="Rk4fHZE66jtxpxEKPoya-94" value="&lt;span style=&quot;font-size:12.0pt;line-height:107%;&lt;br/&gt;font-family:&amp;quot;Times New Roman&amp;quot;,serif;mso-fareast-font-family:Calibri;mso-fareast-theme-font:&lt;br/&gt;minor-latin;mso-ansi-language:HU;mso-fareast-language:EN-US;mso-bidi-language:&lt;br/&gt;AR-SA&quot;&gt;User_id&lt;/span&gt;" style="ellipse;whiteSpace=wrap;html=1;align=center;" parent="1" vertex="1">
          <mxGeometry x="1065" y="100" width="140" height="40" as="geometry" />
        </mxCell>
        <mxCell id="Rk4fHZE66jtxpxEKPoya-95" value="&lt;span style=&quot;font-size:12.0pt;line-height:107%;&lt;br/&gt;font-family:&amp;quot;Times New Roman&amp;quot;,serif;mso-fareast-font-family:Calibri;mso-fareast-theme-font:&lt;br/&gt;minor-latin;mso-ansi-language:HU;mso-fareast-language:EN-US;mso-bidi-language:&lt;br/&gt;AR-SA&quot;&gt;Last_activity&lt;/span&gt;" style="ellipse;whiteSpace=wrap;html=1;align=center;" parent="1" vertex="1">
          <mxGeometry x="962.5" y="390" width="105" height="40" as="geometry" />
        </mxCell>
        <mxCell id="Rk4fHZE66jtxpxEKPoya-97" value="" style="edgeStyle=orthogonalEdgeStyle;rounded=0;orthogonalLoop=1;jettySize=auto;html=1;" parent="1" source="Rk4fHZE66jtxpxEKPoya-96" target="6xBrh_6f9ubQhlfFWh0M-12" edge="1">
          <mxGeometry relative="1" as="geometry" />
        </mxCell>
        <mxCell id="Rk4fHZE66jtxpxEKPoya-98" value="" style="edgeStyle=orthogonalEdgeStyle;rounded=0;orthogonalLoop=1;jettySize=auto;html=1;" parent="1" source="Rk4fHZE66jtxpxEKPoya-96" target="Rk4fHZE66jtxpxEKPoya-88" edge="1">
          <mxGeometry relative="1" as="geometry" />
        </mxCell>
        <mxCell id="Rk4fHZE66jtxpxEKPoya-96" value="User-Session" style="shape=rhombus;perimeter=rhombusPerimeter;whiteSpace=wrap;html=1;align=center;" parent="1" vertex="1">
          <mxGeometry x="760" y="220" width="120" height="60" as="geometry" />
        </mxCell>
        <mxCell id="pAfpiLtt0J3ozyGTxGGi-3" value="&lt;span style=&quot;font-size:12.0pt;line-height:107%;&lt;br/&gt;font-family:&amp;quot;Times New Roman&amp;quot;,serif;mso-fareast-font-family:Calibri;mso-fareast-theme-font:&lt;br/&gt;minor-latin;mso-ansi-language:HU;mso-fareast-language:EN-US;mso-bidi-language:&lt;br/&gt;AR-SA&quot;&gt;Name&lt;/span&gt;" style="ellipse;whiteSpace=wrap;html=1;align=center;" vertex="1" parent="1">
          <mxGeometry x="860" y="660" width="100" height="40" as="geometry" />
        </mxCell>
        <mxCell id="pAfpiLtt0J3ozyGTxGGi-4" value="&lt;span style=&quot;font-size:12.0pt;line-height:107%;&lt;br/&gt;font-family:&amp;quot;Times New Roman&amp;quot;,serif;mso-fareast-font-family:Calibri;mso-fareast-theme-font:&lt;br/&gt;minor-latin;mso-ansi-language:HU;mso-fareast-language:EN-US;mso-bidi-language:&lt;br/&gt;AR-SA&quot;&gt;Email&lt;/span&gt;" style="ellipse;whiteSpace=wrap;html=1;align=center;" vertex="1" parent="1">
          <mxGeometry x="860" y="500" width="100" height="40" as="geometry" />
        </mxCell>
        <mxCell id="pAfpiLtt0J3ozyGTxGGi-5" value="&lt;span style=&quot;font-size:12.0pt;line-height:107%;&lt;br/&gt;font-family:&amp;quot;Times New Roman&amp;quot;,serif;mso-fareast-font-family:Calibri;mso-fareast-theme-font:&lt;br/&gt;minor-latin;mso-ansi-language:HU;mso-fareast-language:EN-US;mso-bidi-language:&lt;br/&gt;AR-SA&quot;&gt;Address&lt;/span&gt;" style="ellipse;whiteSpace=wrap;html=1;align=center;" vertex="1" parent="1">
          <mxGeometry x="967.5" y="660" width="100" height="40" as="geometry" />
        </mxCell>
        <mxCell id="pAfpiLtt0J3ozyGTxGGi-6" value="&lt;span style=&quot;font-size:12.0pt;line-height:107%;&lt;br/&gt;font-family:&amp;quot;Times New Roman&amp;quot;,serif;mso-fareast-font-family:Calibri;mso-fareast-theme-font:&lt;br/&gt;minor-latin;mso-ansi-language:HU;mso-fareast-language:EN-US;mso-bidi-language:&lt;br/&gt;AR-SA&quot;&gt;Zip&lt;/span&gt;" style="ellipse;whiteSpace=wrap;html=1;align=center;" vertex="1" parent="1">
          <mxGeometry x="967.5" y="500" width="100" height="40" as="geometry" />
        </mxCell>
        <mxCell id="pAfpiLtt0J3ozyGTxGGi-7" value="&lt;span style=&quot;font-size:12.0pt;line-height:107%;&lt;br/&gt;font-family:&amp;quot;Times New Roman&amp;quot;,serif;mso-fareast-font-family:Calibri;mso-fareast-theme-font:&lt;br/&gt;minor-latin;mso-ansi-language:HU;mso-fareast-language:EN-US;mso-bidi-language:&lt;br/&gt;AR-SA&quot;&gt;City&lt;/span&gt;" style="ellipse;whiteSpace=wrap;html=1;align=center;" vertex="1" parent="1">
          <mxGeometry x="680" y="675" width="100" height="40" as="geometry" />
        </mxCell>
        <mxCell id="pAfpiLtt0J3ozyGTxGGi-8" value="&lt;span style=&quot;font-size:12.0pt;line-height:107%;&lt;br/&gt;font-family:&amp;quot;Times New Roman&amp;quot;,serif;mso-fareast-font-family:Calibri;mso-fareast-theme-font:&lt;br/&gt;minor-latin;mso-ansi-language:HU;mso-fareast-language:EN-US;mso-bidi-language:&lt;br/&gt;AR-SA&quot;&gt;Currency&lt;/span&gt;" style="ellipse;whiteSpace=wrap;html=1;align=center;" vertex="1" parent="1">
          <mxGeometry x="620" y="815" width="100" height="40" as="geometry" />
        </mxCell>
        <mxCell id="pAfpiLtt0J3ozyGTxGGi-34" style="edgeStyle=orthogonalEdgeStyle;rounded=0;orthogonalLoop=1;jettySize=auto;html=1;entryX=0.5;entryY=1;entryDx=0;entryDy=0;endArrow=none;endFill=0;" edge="1" parent="1" source="pAfpiLtt0J3ozyGTxGGi-41" target="pAfpiLtt0J3ozyGTxGGi-43">
          <mxGeometry relative="1" as="geometry" />
        </mxCell>
        <mxCell id="pAfpiLtt0J3ozyGTxGGi-35" style="edgeStyle=orthogonalEdgeStyle;rounded=0;orthogonalLoop=1;jettySize=auto;html=1;entryX=0.5;entryY=0;entryDx=0;entryDy=0;endArrow=none;endFill=0;" edge="1" parent="1" source="pAfpiLtt0J3ozyGTxGGi-41" target="pAfpiLtt0J3ozyGTxGGi-44">
          <mxGeometry relative="1" as="geometry" />
        </mxCell>
        <mxCell id="pAfpiLtt0J3ozyGTxGGi-36" style="edgeStyle=orthogonalEdgeStyle;rounded=0;orthogonalLoop=1;jettySize=auto;html=1;entryX=0;entryY=0.5;entryDx=0;entryDy=0;endArrow=none;endFill=0;" edge="1" parent="1" source="pAfpiLtt0J3ozyGTxGGi-41" target="pAfpiLtt0J3ozyGTxGGi-42">
          <mxGeometry relative="1" as="geometry" />
        </mxCell>
        <mxCell id="pAfpiLtt0J3ozyGTxGGi-40" style="edgeStyle=orthogonalEdgeStyle;rounded=0;orthogonalLoop=1;jettySize=auto;html=1;startArrow=none;startFill=0;endArrow=none;" edge="1" parent="1" source="pAfpiLtt0J3ozyGTxGGi-41" target="pAfpiLtt0J3ozyGTxGGi-46">
          <mxGeometry relative="1" as="geometry" />
        </mxCell>
        <mxCell id="pAfpiLtt0J3ozyGTxGGi-41" value="&lt;font style=&quot;font-size: 14px;&quot;&gt;Contacts&lt;/font&gt;" style="whiteSpace=wrap;html=1;align=center;" vertex="1" parent="1">
          <mxGeometry x="-20" y="960" width="100" height="40" as="geometry" />
        </mxCell>
        <mxCell id="pAfpiLtt0J3ozyGTxGGi-42" value="&lt;span style=&quot;font-size:12.0pt;line-height:107%;&lt;br/&gt;font-family:&amp;quot;Times New Roman&amp;quot;,serif;mso-fareast-font-family:Calibri;mso-fareast-theme-font:&lt;br/&gt;minor-latin;mso-ansi-language:HU;mso-fareast-language:EN-US;mso-bidi-language:&lt;br/&gt;AR-SA&quot;&gt;email&lt;/span&gt;" style="ellipse;whiteSpace=wrap;html=1;align=center;" vertex="1" parent="1">
          <mxGeometry x="200" y="960" width="100" height="40" as="geometry" />
        </mxCell>
        <mxCell id="pAfpiLtt0J3ozyGTxGGi-43" value="&lt;span style=&quot;font-size:12.0pt;line-height:107%;&lt;br/&gt;font-family:&amp;quot;Times New Roman&amp;quot;,serif;mso-fareast-font-family:Calibri;mso-fareast-theme-font:&lt;br/&gt;minor-latin;mso-ansi-language:HU;mso-fareast-language:EN-US;mso-bidi-language:&lt;br/&gt;AR-SA&quot;&gt;Name&lt;/span&gt;" style="ellipse;whiteSpace=wrap;html=1;align=center;" vertex="1" parent="1">
          <mxGeometry x="-20" y="835" width="100" height="40" as="geometry" />
        </mxCell>
        <mxCell id="pAfpiLtt0J3ozyGTxGGi-44" value="&lt;span style=&quot;font-size:12.0pt;line-height:107%;&lt;br/&gt;font-family:&amp;quot;Times New Roman&amp;quot;,serif;mso-fareast-font-family:Calibri;mso-fareast-theme-font:&lt;br/&gt;minor-latin;mso-ansi-language:HU;mso-fareast-language:EN-US;mso-bidi-language:&lt;br/&gt;AR-SA&quot;&gt;message&lt;/span&gt;" style="ellipse;whiteSpace=wrap;html=1;align=center;" vertex="1" parent="1">
          <mxGeometry x="-20" y="1090" width="100" height="40" as="geometry" />
        </mxCell>
        <mxCell id="pAfpiLtt0J3ozyGTxGGi-46" value="&lt;span style=&quot;font-size:12.0pt;line-height:107%;&lt;br/&gt;font-family:&amp;quot;Times New Roman&amp;quot;,serif;mso-fareast-font-family:Calibri;mso-fareast-theme-font:&lt;br/&gt;minor-latin;mso-ansi-language:HU;mso-fareast-language:EN-US;mso-bidi-language:&lt;br/&gt;AR-SA&quot;&gt;Id&lt;/span&gt;" style="ellipse;whiteSpace=wrap;html=1;align=center;" vertex="1" parent="1">
          <mxGeometry x="-240" y="960" width="100" height="40" as="geometry" />
        </mxCell>
      </root>
    </mxGraphModel>
  </diagram>
</mxfile>
